STARTFONT 2.1
FONT -xos4-Terminus-Bold-R-Normal--32-320-72-72-C-160-ISO8859-15
SIZE 32 72 72
FONTBOUNDINGBOX 16 32 0 -6

STARTPROPERTIES 23
FAMILY_NAME "Terminus"
FOUNDRY "xos4"
SETWIDTH_NAME "Normal"
ADD_STYLE_NAME ""
COPYRIGHT "Copyright (C) 2015 Dimitar Toshkov Zhekov"
NOTICE "Licensed under the SIL Open Font License, Version 1.1"
WEIGHT_NAME "Bold"
SLANT "R"
PIXEL_SIZE 32
POINT_SIZE 320
RESOLUTION_X 72
RESOLUTION_Y 72
SPACING "C"
AVERAGE_WIDTH 160
CHARSET_REGISTRY "ISO8859"
CHARSET_ENCODING "15"
MIN_SPACE 16
WEIGHT 10
X_HEIGHT 26
QUAD_WIDTH 16
DEFAULT_CHAR 63
FONT_DESCENT 6
FONT_ASCENT 26
ENDPROPERTIES

CHARS 219

STARTCHAR uni0000
ENCODING 0
SWIDTH 500 0
DWIDTH 16 0
BBX 16 32 0 -6
BITMAP
0000
0000
0000
0000
0000
0000
7C7C
7C7C
701C
701C
701C
0000
0000
0000
701C
701C
701C
701C
0000
0000
0000
701C
701C
701C
7C7C
7C7C
0000
0000
0000
0000
0000
0000
ENDCHAR

STARTCHAR uni0001
ENCODING 1
SWIDTH 500 0
DWIDTH 16 0
BBX 16 32 0 -6
BITMAP
0000
0000
0000
0000
0000
0000
0000
0000
0000
0380
07C0
0FE0
1FF0
3FF8
7FFC
FFFE
FFFE
7FFC
3FF8
1FF0
0FE0
07C0
0380
0000
0000
0000
0000
0000
0000
0000
0000
0000
ENDCHAR

STARTCHAR uni0002
ENCODING 2
SWIDTH 500 0
DWIDTH 16 0
BBX 16 32 0 -6
BITMAP
AAAA
5555
AAAA
5555
AAAA
5555
AAAA
5555
AAAA
5555
AAAA
5555
AAAA
5555
AAAA
5555
AAAA
5555
AAAA
5555
AAAA
5555
AAAA
5555
AAAA
5555
AAAA
5555
AAAA
5555
AAAA
5555
ENDCHAR

STARTCHAR uni0003
ENCODING 3
SWIDTH 500 0
DWIDTH 16 0
BBX 16 32 0 -6
BITMAP
0000
0000
0000
0000
0000
0000
71C0
71C0
71C0
7FC0
7FC0
71C0
71C0
71C0
71C0
0000
0000
03FE
03FE
0070
0070
0070
0070
0070
0070
0070
0000
0000
0000
0000
0000
0000
ENDCHAR

STARTCHAR uni0004
ENCODING 4
SWIDTH 500 0
DWIDTH 16 0
BBX 16 32 0 -6
BITMAP
0000
0000
0000
0000
0000
0000
7FC0
7FC0
7000
7000
7F00
7F00
7000
7000
7000
0000
0000
03FE
03FE
0380
0380
03F8
03F8
0380
0380
0380
0000
0000
0000
0000
0000
0000
ENDCHAR

STARTCHAR uni0005
ENCODING 5
SWIDTH 500 0
DWIDTH 16 0
BBX 16 32 0 -6
BITMAP
0000
0000
0000
0000
0000
0000
3F80
7FC0
71C0
7000
7000
7000
71C0
7FC0
3F80
0000
0000
03FC
03FE
038E
038E
03FC
03F0
03B8
039C
038E
0000
0000
0000
0000
0000
0000
ENDCHAR

STARTCHAR uni0006
ENCODING 6
SWIDTH 500 0
DWIDTH 16 0
BBX 16 32 0 -6
BITMAP
0000
0000
0000
0000
0000
0000
7000
7000
7000
7000
7000
7000
7000
7FC0
7FC0
0000
0000
03FE
03FE
0380
0380
03F8
03F8
0380
0380
0380
0000
0000
0000
0000
0000
0000
ENDCHAR

STARTCHAR uni0007
ENCODING 7
SWIDTH 500 0
DWIDTH 16 0
BBX 16 32 0 -6
BITMAP
0000
0000
0000
0000
0FE0
1FF0
1C70
1C70
1C70
1C70
1FF0
0FE0
0000
0000
0000
0000
0000
0000
0000
0000
0000
0000
0000
0000
0000
0000
0000
0000
0000
0000
0000
0000
ENDCHAR

STARTCHAR uni0008
ENCODING 8
SWIDTH 500 0
DWIDTH 16 0
BBX 16 32 0 -6
BITMAP
0000
0000
0000
0000
0000
0000
0000
0000
0000
0000
0380
0380
0380
0380
0380
7FFC
7FFC
0380
0380
0380
0380
0380
0000
0000
7FFC
7FFC
0000
0000
0000
0000
0000
0000
ENDCHAR

STARTCHAR uni0009
ENCODING 9
SWIDTH 500 0
DWIDTH 16 0
BBX 16 32 0 -6
BITMAP
0000
0000
0000
0000
0000
0000
71C0
71C0
79C0
7DC0
7FC0
77C0
73C0
71C0
71C0
0000
0000
0380
0380
0380
0380
0380
0380
0380
03FE
03FE
0000
0000
0000
0000
0000
0000
ENDCHAR

STARTCHAR uni000A
ENCODING 10
SWIDTH 500 0
DWIDTH 16 0
BBX 16 32 0 -6
BITMAP
0000
0000
0000
0000
0000
0000
71C0
71C0
71C0
71C0
71C0
71C0
3B80
1F00
0E00
0000
0000
03FE
03FE
0070
0070
0070
0070
0070
0070
0070
0000
0000
0000
0000
0000
0000
ENDCHAR

STARTCHAR uni000B
ENCODING 11
SWIDTH 500 0
DWIDTH 16 0
BBX 16 32 0 -6
BITMAP
0380
0380
0380
0380
0380
0380
0380
0380
0380
0380
0380
0380
0380
0380
FF80
FF80
FF80
0000
0000
0000
0000
0000
0000
0000
0000
0000
0000
0000
0000
0000
0000
0000
ENDCHAR

STARTCHAR uni000C
ENCODING 12
SWIDTH 500 0
DWIDTH 16 0
BBX 16 32 0 -6
BITMAP
0000
0000
0000
0000
0000
0000
0000
0000
0000
0000
0000
0000
0000
0000
FF80
FF80
FF80
0380
0380
0380
0380
0380
0380
0380
0380
0380
0380
0380
0380
0380
0380
0380
ENDCHAR

STARTCHAR uni000D
ENCODING 13
SWIDTH 500 0
DWIDTH 16 0
BBX 16 32 0 -6
BITMAP
0000
0000
0000
0000
0000
0000
0000
0000
0000
0000
0000
0000
0000
0000
03FF
03FF
03FF
0380
0380
0380
0380
0380
0380
0380
0380
0380
0380
0380
0380
0380
0380
0380
ENDCHAR

STARTCHAR uni000E
ENCODING 14
SWIDTH 500 0
DWIDTH 16 0
BBX 16 32 0 -6
BITMAP
0380
0380
0380
0380
0380
0380
0380
0380
0380
0380
0380
0380
0380
0380
03FF
03FF
03FF
0000
0000
0000
0000
0000
0000
0000
0000
0000
0000
0000
0000
0000
0000
0000
ENDCHAR

STARTCHAR uni000F
ENCODING 15
SWIDTH 500 0
DWIDTH 16 0
BBX 16 32 0 -6
BITMAP
0380
0380
0380
0380
0380
0380
0380
0380
0380
0380
0380
0380
0380
0380
FFFF
FFFF
FFFF
0380
0380
0380
0380
0380
0380
0380
0380
0380
0380
0380
0380
0380
0380
0380
ENDCHAR

STARTCHAR uni0012
ENCODING 18
SWIDTH 500 0
DWIDTH 16 0
BBX 16 32 0 -6
BITMAP
0000
0000
0000
0000
0000
0000
0000
0000
0000
0000
0000
0000
0000
0000
FFFF
FFFF
FFFF
0000
0000
0000
0000
0000
0000
0000
0000
0000
0000
0000
0000
0000
0000
0000
ENDCHAR

STARTCHAR uni0015
ENCODING 21
SWIDTH 500 0
DWIDTH 16 0
BBX 16 32 0 -6
BITMAP
0380
0380
0380
0380
0380
0380
0380
0380
0380
0380
0380
0380
0380
0380
03FF
03FF
03FF
0380
0380
0380
0380
0380
0380
0380
0380
0380
0380
0380
0380
0380
0380
0380
ENDCHAR

STARTCHAR uni0016
ENCODING 22
SWIDTH 500 0
DWIDTH 16 0
BBX 16 32 0 -6
BITMAP
0380
0380
0380
0380
0380
0380
0380
0380
0380
0380
0380
0380
0380
0380
FF80
FF80
FF80
0380
0380
0380
0380
0380
0380
0380
0380
0380
0380
0380
0380
0380
0380
0380
ENDCHAR

STARTCHAR uni0017
ENCODING 23
SWIDTH 500 0
DWIDTH 16 0
BBX 16 32 0 -6
BITMAP
0380
0380
0380
0380
0380
0380
0380
0380
0380
0380
0380
0380
0380
0380
FFFF
FFFF
FFFF
0000
0000
0000
0000
0000
0000
0000
0000
0000
0000
0000
0000
0000
0000
0000
ENDCHAR

STARTCHAR uni0018
ENCODING 24
SWIDTH 500 0
DWIDTH 16 0
BBX 16 32 0 -6
BITMAP
0000
0000
0000
0000
0000
0000
0000
0000
0000
0000
0000
0000
0000
0000
FFFF
FFFF
FFFF
0380
0380
0380
0380
0380
0380
0380
0380
0380
0380
0380
0380
0380
0380
0380
ENDCHAR

STARTCHAR uni0019
ENCODING 25
SWIDTH 500 0
DWIDTH 16 0
BBX 16 32 0 -6
BITMAP
0380
0380
0380
0380
0380
0380
0380
0380
0380
0380
0380
0380
0380
0380
0380
0380
0380
0380
0380
0380
0380
0380
0380
0380
0380
0380
0380
0380
0380
0380
0380
0380
ENDCHAR

STARTCHAR uni001A
ENCODING 26
SWIDTH 500 0
DWIDTH 16 0
BBX 16 32 0 -6
BITMAP
0000
0000
0000
0000
0000
0000
0038
0070
00E0
01C0
0380
0700
0E00
1C00
1C00
0E00
0700
0380
01C0
00E0
0070
0038
0000
0000
3FFC
3FFC
0000
0000
0000
0000
0000
0000
ENDCHAR

STARTCHAR uni001B
ENCODING 27
SWIDTH 500 0
DWIDTH 16 0
BBX 16 32 0 -6
BITMAP
0000
0000
0000
0000
0000
0000
1C00
0E00
0700
0380
01C0
00E0
0070
0038
0038
0070
00E0
01C0
0380
0700
0E00
1C00
0000
0000
3FFC
3FFC
0000
0000
0000
0000
0000
0000
ENDCHAR

STARTCHAR uni001C
ENCODING 28
SWIDTH 500 0
DWIDTH 16 0
BBX 16 32 0 -6
BITMAP
0000
0000
0000
0000
0000
0000
0000
0000
0000
0000
0000
0000
7FFC
7FFC
701C
701C
701C
701C
701C
701C
701C
701C
701C
701C
701C
701C
0000
0000
0000
0000
0000
0000
ENDCHAR

STARTCHAR uni001D
ENCODING 29
SWIDTH 500 0
DWIDTH 16 0
BBX 16 32 0 -6
BITMAP
0000
0000
0000
0000
0000
0000
0000
0000
0000
0000
000E
001C
7FFE
7FFE
00E0
01C0
0380
0700
7FFE
7FFE
3800
7000
0000
0000
0000
0000
0000
0000
0000
0000
0000
0000
ENDCHAR

STARTCHAR uni001E
ENCODING 30
SWIDTH 500 0
DWIDTH 16 0
BBX 16 32 0 -6
BITMAP
0000
0000
0000
0000
0000
0000
07E0
0FF0
1E78
1C38
1C00
1C00
1C00
1C00
1C00
7FE0
7FE0
1C00
1C00
1C00
1C00
1C00
1C1C
1C1C
7FFC
7FFC
0000
0000
0000
0000
0000
0000
ENDCHAR

STARTCHAR uni001F
ENCODING 31
SWIDTH 500 0
DWIDTH 16 0
BBX 16 32 0 -6
BITMAP
0000
0000
0000
0000
0000
0000
0000
0000
0000
0000
0000
0000
0000
0000
0380
0380
0380
0380
0000
0000
0000
0000
0000
0000
0000
0000
0000
0000
0000
0000
0000
0000
ENDCHAR

STARTCHAR space
ENCODING 32
SWIDTH 500 0
DWIDTH 16 0
BBX 16 32 0 -6
BITMAP
0000
0000
0000
0000
0000
0000
0000
0000
0000
0000
0000
0000
0000
0000
0000
0000
0000
0000
0000
0000
0000
0000
0000
0000
0000
0000
0000
0000
0000
0000
0000
0000
ENDCHAR

STARTCHAR exclam
ENCODING 33
SWIDTH 500 0
DWIDTH 16 0
BBX 16 32 0 -6
BITMAP
0000
0000
0000
0000
0000
0000
0380
0380
0380
0380
0380
0380
0380
0380
0380
0380
0380
0380
0380
0000
0000
0000
0380
0380
0380
0380
0000
0000
0000
0000
0000
0000
ENDCHAR

STARTCHAR quotedbl
ENCODING 34
SWIDTH 500 0
DWIDTH 16 0
BBX 16 32 0 -6
BITMAP
0000
0000
0000
0000
1C70
1C70
1C70
1C70
1C70
1C70
0000
0000
0000
0000
0000
0000
0000
0000
0000
0000
0000
0000
0000
0000
0000
0000
0000
0000
0000
0000
0000
0000
ENDCHAR

STARTCHAR numbersign
ENCODING 35
SWIDTH 500 0
DWIDTH 16 0
BBX 16 32 0 -6
BITMAP
0000
0000
0000
0000
0000
0000
1C70
1C70
1C70
1C70
1C70
7FFC
7FFC
1C70
1C70
1C70
1C70
1C70
1C70
7FFC
7FFC
1C70
1C70
1C70
1C70
1C70
0000
0000
0000
0000
0000
0000
ENDCHAR

STARTCHAR dollar
ENCODING 36
SWIDTH 500 0
DWIDTH 16 0
BBX 16 32 0 -6
BITMAP
0000
0000
0000
0000
0380
0380
0380
1FF0
3FF8
7BBC
739C
7380
7380
7380
7B80
3FF0
1FF8
03BC
039C
039C
039C
739C
7BBC
3FF8
1FF0
0380
0380
0380
0000
0000
0000
0000
ENDCHAR

STARTCHAR percent
ENCODING 37
SWIDTH 500 0
DWIDTH 16 0
BBX 16 32 0 -6
BITMAP
0000
0000
0000
0000
0000
0000
1F1C
3F9C
3BB8
3BB8
3FF0
1F70
00E0
00E0
01C0
01C0
0380
0380
0700
0700
0EF8
0FFC
1DDC
1DDC
39FC
38F8
0000
0000
0000
0000
0000
0000
ENDCHAR

STARTCHAR ampersand
ENCODING 38
SWIDTH 500 0
DWIDTH 16 0
BBX 16 32 0 -6
BITMAP
0000
0000
0000
0000
0000
0000
0FC0
1FE0
3870
3870
3870
3870
3870
1CE0
0FC0
0F80
1FCE
38EE
707C
7038
7038
7038
7038
787C
3FEE
1FCE
0000
0000
0000
0000
0000
0000
ENDCHAR

STARTCHAR quotesingle
ENCODING 39
SWIDTH 500 0
DWIDTH 16 0
BBX 16 32 0 -6
BITMAP
0000
0000
0000
0000
0380
0380
0380
0380
0380
0380
0000
0000
0000
0000
0000
0000
0000
0000
0000
0000
0000
0000
0000
0000
0000
0000
0000
0000
0000
0000
0000
0000
ENDCHAR

STARTCHAR parenleft
ENCODING 40
SWIDTH 500 0
DWIDTH 16 0
BBX 16 32 0 -6
BITMAP
0000
0000
0000
0000
0000
0000
00E0
01C0
0380
0700
0700
0E00
0E00
0E00
0E00
0E00
0E00
0E00
0E00
0E00
0E00
0700
0700
0380
01C0
00E0
0000
0000
0000
0000
0000
0000
ENDCHAR

STARTCHAR parenright
ENCODING 41
SWIDTH 500 0
DWIDTH 16 0
BBX 16 32 0 -6
BITMAP
0000
0000
0000
0000
0000
0000
0E00
0700
0380
01C0
01C0
00E0
00E0
00E0
00E0
00E0
00E0
00E0
00E0
00E0
00E0
01C0
01C0
0380
0700
0E00
0000
0000
0000
0000
0000
0000
ENDCHAR

STARTCHAR asterisk
ENCODING 42
SWIDTH 500 0
DWIDTH 16 0
BBX 16 32 0 -6
BITMAP
0000
0000
0000
0000
0000
0000
0000
0000
0000
0000
3838
1C70
0EE0
07C0
0380
7FFC
7FFC
0380
07C0
0EE0
1C70
3838
0000
0000
0000
0000
0000
0000
0000
0000
0000
0000
ENDCHAR

STARTCHAR plus
ENCODING 43
SWIDTH 500 0
DWIDTH 16 0
BBX 16 32 0 -6
BITMAP
0000
0000
0000
0000
0000
0000
0000
0000
0000
0000
0380
0380
0380
0380
0380
7FFC
7FFC
0380
0380
0380
0380
0380
0000
0000
0000
0000
0000
0000
0000
0000
0000
0000
ENDCHAR

STARTCHAR comma
ENCODING 44
SWIDTH 500 0
DWIDTH 16 0
BBX 16 32 0 -6
BITMAP
0000
0000
0000
0000
0000
0000
0000
0000
0000
0000
0000
0000
0000
0000
0000
0000
0000
0000
0000
0000
0000
0000
0380
0380
0380
0380
0700
0E00
0000
0000
0000
0000
ENDCHAR

STARTCHAR hyphen
ENCODING 45
SWIDTH 500 0
DWIDTH 16 0
BBX 16 32 0 -6
BITMAP
0000
0000
0000
0000
0000
0000
0000
0000
0000
0000
0000
0000
0000
0000
0000
7FFC
7FFC
0000
0000
0000
0000
0000
0000
0000
0000
0000
0000
0000
0000
0000
0000
0000
ENDCHAR

STARTCHAR period
ENCODING 46
SWIDTH 500 0
DWIDTH 16 0
BBX 16 32 0 -6
BITMAP
0000
0000
0000
0000
0000
0000
0000
0000
0000
0000
0000
0000
0000
0000
0000
0000
0000
0000
0000
0000
0000
0000
0380
0380
0380
0380
0000
0000
0000
0000
0000
0000
ENDCHAR

STARTCHAR slash
ENCODING 47
SWIDTH 500 0
DWIDTH 16 0
BBX 16 32 0 -6
BITMAP
0000
0000
0000
0000
0000
0000
001C
001C
0038
0038
0070
0070
00E0
00E0
01C0
01C0
0380
0380
0700
0700
0E00
0E00
1C00
1C00
3800
3800
0000
0000
0000
0000
0000
0000
ENDCHAR

STARTCHAR zero
ENCODING 48
SWIDTH 500 0
DWIDTH 16 0
BBX 16 32 0 -6
BITMAP
0000
0000
0000
0000
0000
0000
1FF0
3FF8
783C
701C
701C
703C
707C
70FC
71DC
739C
771C
7E1C
7C1C
781C
701C
701C
701C
783C
3FF8
1FF0
0000
0000
0000
0000
0000
0000
ENDCHAR

STARTCHAR one
ENCODING 49
SWIDTH 500 0
DWIDTH 16 0
BBX 16 32 0 -6
BITMAP
0000
0000
0000
0000
0000
0000
0380
0780
0F80
1F80
1F80
0380
0380
0380
0380
0380
0380
0380
0380
0380
0380
0380
0380
0380
1FF0
1FF0
0000
0000
0000
0000
0000
0000
ENDCHAR

STARTCHAR two
ENCODING 50
SWIDTH 500 0
DWIDTH 16 0
BBX 16 32 0 -6
BITMAP
0000
0000
0000
0000
0000
0000
1FF0
3FF8
783C
701C
701C
701C
701C
001C
0038
0070
00E0
01C0
0380
0700
0E00
1C00
3800
7000
7FFC
7FFC
0000
0000
0000
0000
0000
0000
ENDCHAR

STARTCHAR three
ENCODING 51
SWIDTH 500 0
DWIDTH 16 0
BBX 16 32 0 -6
BITMAP
0000
0000
0000
0000
0000
0000
1FF0
3FF8
783C
701C
701C
001C
001C
001C
003C
0FF8
0FF8
003C
001C
001C
001C
701C
701C
783C
3FF8
1FF0
0000
0000
0000
0000
0000
0000
ENDCHAR

STARTCHAR four
ENCODING 52
SWIDTH 500 0
DWIDTH 16 0
BBX 16 32 0 -6
BITMAP
0000
0000
0000
0000
0000
0000
001C
003C
007C
00FC
01DC
039C
071C
0E1C
1C1C
381C
701C
701C
701C
7FFC
7FFC
001C
001C
001C
001C
001C
0000
0000
0000
0000
0000
0000
ENDCHAR

STARTCHAR five
ENCODING 53
SWIDTH 500 0
DWIDTH 16 0
BBX 16 32 0 -6
BITMAP
0000
0000
0000
0000
0000
0000
7FFC
7FFC
7000
7000
7000
7000
7000
7000
7FF0
7FF8
003C
001C
001C
001C
001C
001C
701C
781C
3FF8
1FF0
0000
0000
0000
0000
0000
0000
ENDCHAR

STARTCHAR six
ENCODING 54
SWIDTH 500 0
DWIDTH 16 0
BBX 16 32 0 -6
BITMAP
0000
0000
0000
0000
0000
0000
1FF8
3FF8
7800
7000
7000
7000
7000
7000
7FF0
7FF8
703C
701C
701C
701C
701C
701C
701C
783C
3FF8
1FF0
0000
0000
0000
0000
0000
0000
ENDCHAR

STARTCHAR seven
ENCODING 55
SWIDTH 500 0
DWIDTH 16 0
BBX 16 32 0 -6
BITMAP
0000
0000
0000
0000
0000
0000
7FFC
7FFC
701C
701C
701C
7038
0038
0070
0070
00E0
00E0
01C0
01C0
0380
0380
0380
0380
0380
0380
0380
0000
0000
0000
0000
0000
0000
ENDCHAR

STARTCHAR eight
ENCODING 56
SWIDTH 500 0
DWIDTH 16 0
BBX 16 32 0 -6
BITMAP
0000
0000
0000
0000
0000
0000
1FF0
3FF8
783C
701C
701C
701C
701C
701C
783C
3FF8
3FF8
783C
701C
701C
701C
701C
701C
783C
3FF8
1FF0
0000
0000
0000
0000
0000
0000
ENDCHAR

STARTCHAR nine
ENCODING 57
SWIDTH 500 0
DWIDTH 16 0
BBX 16 32 0 -6
BITMAP
0000
0000
0000
0000
0000
0000
1FF0
3FF8
783C
701C
701C
701C
701C
701C
701C
781C
3FFC
1FFC
001C
001C
001C
001C
001C
003C
3FF8
3FF0
0000
0000
0000
0000
0000
0000
ENDCHAR

STARTCHAR colon
ENCODING 58
SWIDTH 500 0
DWIDTH 16 0
BBX 16 32 0 -6
BITMAP
0000
0000
0000
0000
0000
0000
0000
0000
0000
0000
0000
0000
0380
0380
0380
0380
0000
0000
0000
0000
0000
0000
0380
0380
0380
0380
0000
0000
0000
0000
0000
0000
ENDCHAR

STARTCHAR semicolon
ENCODING 59
SWIDTH 500 0
DWIDTH 16 0
BBX 16 32 0 -6
BITMAP
0000
0000
0000
0000
0000
0000
0000
0000
0000
0000
0000
0000
0380
0380
0380
0380
0000
0000
0000
0000
0000
0000
0380
0380
0380
0380
0700
0E00
0000
0000
0000
0000
ENDCHAR

STARTCHAR less
ENCODING 60
SWIDTH 500 0
DWIDTH 16 0
BBX 16 32 0 -6
BITMAP
0000
0000
0000
0000
0000
0000
001C
0038
0070
00E0
01C0
0380
0700
0E00
1C00
3800
3800
1C00
0E00
0700
0380
01C0
00E0
0070
0038
001C
0000
0000
0000
0000
0000
0000
ENDCHAR

STARTCHAR equal
ENCODING 61
SWIDTH 500 0
DWIDTH 16 0
BBX 16 32 0 -6
BITMAP
0000
0000
0000
0000
0000
0000
0000
0000
0000
0000
0000
0000
7FFC
7FFC
0000
0000
0000
0000
7FFC
7FFC
0000
0000
0000
0000
0000
0000
0000
0000
0000
0000
0000
0000
ENDCHAR

STARTCHAR greater
ENCODING 62
SWIDTH 500 0
DWIDTH 16 0
BBX 16 32 0 -6
BITMAP
0000
0000
0000
0000
0000
0000
3800
1C00
0E00
0700
0380
01C0
00E0
0070
0038
001C
001C
0038
0070
00E0
01C0
0380
0700
0E00
1C00
3800
0000
0000
0000
0000
0000
0000
ENDCHAR

STARTCHAR question
ENCODING 63
SWIDTH 500 0
DWIDTH 16 0
BBX 16 32 0 -6
BITMAP
0000
0000
0000
0000
0000
0000
1FF0
3FF8
783C
701C
701C
701C
701C
0038
0070
00E0
01C0
0380
0380
0380
0000
0000
0380
0380
0380
0380
0000
0000
0000
0000
0000
0000
ENDCHAR

STARTCHAR at
ENCODING 64
SWIDTH 500 0
DWIDTH 16 0
BBX 16 32 0 -6
BITMAP
0000
0000
0000
0000
0000
0000
1FF8
3FFC
780E
7006
71FE
73FE
778E
770E
770E
770E
770E
770E
770E
779E
73FE
71F6
7000
7800
3FFE
1FFE
0000
0000
0000
0000
0000
0000
ENDCHAR

STARTCHAR A
ENCODING 65
SWIDTH 500 0
DWIDTH 16 0
BBX 16 32 0 -6
BITMAP
0000
0000
0000
0000
0000
0000
1FF0
3FF8
783C
701C
701C
701C
701C
701C
701C
701C
7FFC
7FFC
701C
701C
701C
701C
701C
701C
701C
701C
0000
0000
0000
0000
0000
0000
ENDCHAR

STARTCHAR B
ENCODING 66
SWIDTH 500 0
DWIDTH 16 0
BBX 16 32 0 -6
BITMAP
0000
0000
0000
0000
0000
0000
7FF0
7FF8
703C
701C
701C
701C
701C
7038
7FF0
7FF0
7038
701C
701C
701C
701C
701C
701C
703C
7FF8
7FF0
0000
0000
0000
0000
0000
0000
ENDCHAR

STARTCHAR C
ENCODING 67
SWIDTH 500 0
DWIDTH 16 0
BBX 16 32 0 -6
BITMAP
0000
0000
0000
0000
0000
0000
1FF0
3FF8
783C
701C
701C
7000
7000
7000
7000
7000
7000
7000
7000
7000
7000
701C
701C
783C
3FF8
1FF0
0000
0000
0000
0000
0000
0000
ENDCHAR

STARTCHAR D
ENCODING 68
SWIDTH 500 0
DWIDTH 16 0
BBX 16 32 0 -6
BITMAP
0000
0000
0000
0000
0000
0000
7FC0
7FF0
7078
7038
701C
701C
701C
701C
701C
701C
701C
701C
701C
701C
701C
701C
7038
7078
7FF0
7FC0
0000
0000
0000
0000
0000
0000
ENDCHAR

STARTCHAR E
ENCODING 69
SWIDTH 500 0
DWIDTH 16 0
BBX 16 32 0 -6
BITMAP
0000
0000
0000
0000
0000
0000
7FFC
7FFC
7000
7000
7000
7000
7000
7000
7000
7FE0
7FE0
7000
7000
7000
7000
7000
7000
7000
7FFC
7FFC
0000
0000
0000
0000
0000
0000
ENDCHAR

STARTCHAR F
ENCODING 70
SWIDTH 500 0
DWIDTH 16 0
BBX 16 32 0 -6
BITMAP
0000
0000
0000
0000
0000
0000
7FFC
7FFC
7000
7000
7000
7000
7000
7000
7000
7FE0
7FE0
7000
7000
7000
7000
7000
7000
7000
7000
7000
0000
0000
0000
0000
0000
0000
ENDCHAR

STARTCHAR G
ENCODING 71
SWIDTH 500 0
DWIDTH 16 0
BBX 16 32 0 -6
BITMAP
0000
0000
0000
0000
0000
0000
1FF0
3FF8
783C
701C
701C
7000
7000
7000
7000
71FC
71FC
701C
701C
701C
701C
701C
701C
783C
3FF8
1FF0
0000
0000
0000
0000
0000
0000
ENDCHAR

STARTCHAR H
ENCODING 72
SWIDTH 500 0
DWIDTH 16 0
BBX 16 32 0 -6
BITMAP
0000
0000
0000
0000
0000
0000
701C
701C
701C
701C
701C
701C
701C
701C
701C
7FFC
7FFC
701C
701C
701C
701C
701C
701C
701C
701C
701C
0000
0000
0000
0000
0000
0000
ENDCHAR

STARTCHAR I
ENCODING 73
SWIDTH 500 0
DWIDTH 16 0
BBX 16 32 0 -6
BITMAP
0000
0000
0000
0000
0000
0000
0FE0
0FE0
0380
0380
0380
0380
0380
0380
0380
0380
0380
0380
0380
0380
0380
0380
0380
0380
0FE0
0FE0
0000
0000
0000
0000
0000
0000
ENDCHAR

STARTCHAR J
ENCODING 74
SWIDTH 500 0
DWIDTH 16 0
BBX 16 32 0 -6
BITMAP
0000
0000
0000
0000
0000
0000
00FE
00FE
0038
0038
0038
0038
0038
0038
0038
0038
0038
0038
0038
0038
7038
7038
7038
7878
3FF0
1FE0
0000
0000
0000
0000
0000
0000
ENDCHAR

STARTCHAR K
ENCODING 75
SWIDTH 500 0
DWIDTH 16 0
BBX 16 32 0 -6
BITMAP
0000
0000
0000
0000
0000
0000
700C
701C
7038
7070
70E0
71C0
7380
7700
7E00
7C00
7C00
7E00
7700
7380
71C0
70E0
7070
7038
701C
700C
0000
0000
0000
0000
0000
0000
ENDCHAR

STARTCHAR L
ENCODING 76
SWIDTH 500 0
DWIDTH 16 0
BBX 16 32 0 -6
BITMAP
0000
0000
0000
0000
0000
0000
7000
7000
7000
7000
7000
7000
7000
7000
7000
7000
7000
7000
7000
7000
7000
7000
7000
7000
7FFC
7FFC
0000
0000
0000
0000
0000
0000
ENDCHAR

STARTCHAR M
ENCODING 77
SWIDTH 500 0
DWIDTH 16 0
BBX 16 32 0 -6
BITMAP
0000
0000
0000
0000
0000
0000
700E
700E
781E
7C3E
7E7E
7E7E
77EE
73CE
73CE
718E
700E
700E
700E
700E
700E
700E
700E
700E
700E
700E
0000
0000
0000
0000
0000
0000
ENDCHAR

STARTCHAR N
ENCODING 78
SWIDTH 500 0
DWIDTH 16 0
BBX 16 32 0 -6
BITMAP
0000
0000
0000
0000
0000
0000
701C
701C
701C
701C
701C
781C
7C1C
7E1C
771C
739C
71DC
70FC
707C
703C
701C
701C
701C
701C
701C
701C
0000
0000
0000
0000
0000
0000
ENDCHAR

STARTCHAR O
ENCODING 79
SWIDTH 500 0
DWIDTH 16 0
BBX 16 32 0 -6
BITMAP
0000
0000
0000
0000
0000
0000
1FF0
3FF8
783C
701C
701C
701C
701C
701C
701C
701C
701C
701C
701C
701C
701C
701C
701C
783C
3FF8
1FF0
0000
0000
0000
0000
0000
0000
ENDCHAR

STARTCHAR P
ENCODING 80
SWIDTH 500 0
DWIDTH 16 0
BBX 16 32 0 -6
BITMAP
0000
0000
0000
0000
0000
0000
7FF0
7FF8
703C
701C
701C
701C
701C
701C
701C
703C
7FF8
7FF0
7000
7000
7000
7000
7000
7000
7000
7000
0000
0000
0000
0000
0000
0000
ENDCHAR

STARTCHAR Q
ENCODING 81
SWIDTH 500 0
DWIDTH 16 0
BBX 16 32 0 -6
BITMAP
0000
0000
0000
0000
0000
0000
1FF0
3FF8
783C
701C
701C
701C
701C
701C
701C
701C
701C
701C
701C
701C
701C
701C
739C
79FC
3FF8
1FF0
0038
001C
0000
0000
0000
0000
ENDCHAR

STARTCHAR R
ENCODING 82
SWIDTH 500 0
DWIDTH 16 0
BBX 16 32 0 -6
BITMAP
0000
0000
0000
0000
0000
0000
7FF0
7FF8
703C
701C
701C
701C
701C
701C
701C
703C
7FF8
7FF0
7E00
7700
7380
71C0
70E0
7070
7038
701C
0000
0000
0000
0000
0000
0000
ENDCHAR

STARTCHAR S
ENCODING 83
SWIDTH 500 0
DWIDTH 16 0
BBX 16 32 0 -6
BITMAP
0000
0000
0000
0000
0000
0000
1FF0
3FF8
783C
701C
701C
7000
7000
7000
7800
3FF0
1FF8
003C
001C
001C
001C
701C
701C
783C
3FF8
1FF0
0000
0000
0000
0000
0000
0000
ENDCHAR

STARTCHAR T
ENCODING 84
SWIDTH 500 0
DWIDTH 16 0
BBX 16 32 0 -6
BITMAP
0000
0000
0000
0000
0000
0000
7FFC
7FFC
0380
0380
0380
0380
0380
0380
0380
0380
0380
0380
0380
0380
0380
0380
0380
0380
0380
0380
0000
0000
0000
0000
0000
0000
ENDCHAR

STARTCHAR U
ENCODING 85
SWIDTH 500 0
DWIDTH 16 0
BBX 16 32 0 -6
BITMAP
0000
0000
0000
0000
0000
0000
701C
701C
701C
701C
701C
701C
701C
701C
701C
701C
701C
701C
701C
701C
701C
701C
701C
783C
3FF8
1FF0
0000
0000
0000
0000
0000
0000
ENDCHAR

STARTCHAR V
ENCODING 86
SWIDTH 500 0
DWIDTH 16 0
BBX 16 32 0 -6
BITMAP
0000
0000
0000
0000
0000
0000
701C
701C
701C
701C
701C
3838
3838
3838
3838
3838
1C70
1C70
1C70
1C70
0EE0
0EE0
0EE0
07C0
07C0
07C0
0000
0000
0000
0000
0000
0000
ENDCHAR

STARTCHAR W
ENCODING 87
SWIDTH 500 0
DWIDTH 16 0
BBX 16 32 0 -6
BITMAP
0000
0000
0000
0000
0000
0000
700E
700E
700E
700E
700E
700E
700E
700E
700E
700E
718E
73CE
73CE
77EE
7E7E
7E7E
7C3E
781E
700E
700E
0000
0000
0000
0000
0000
0000
ENDCHAR

STARTCHAR X
ENCODING 88
SWIDTH 500 0
DWIDTH 16 0
BBX 16 32 0 -6
BITMAP
0000
0000
0000
0000
0000
0000
701C
701C
3838
3838
1C70
1C70
0EE0
0EE0
07C0
07C0
07C0
07C0
0EE0
0EE0
1C70
1C70
3838
3838
701C
701C
0000
0000
0000
0000
0000
0000
ENDCHAR

STARTCHAR Y
ENCODING 89
SWIDTH 500 0
DWIDTH 16 0
BBX 16 32 0 -6
BITMAP
0000
0000
0000
0000
0000
0000
701C
701C
701C
3838
3838
1C70
1C70
0EE0
0EE0
07C0
07C0
0380
0380
0380
0380
0380
0380
0380
0380
0380
0000
0000
0000
0000
0000
0000
ENDCHAR

STARTCHAR Z
ENCODING 90
SWIDTH 500 0
DWIDTH 16 0
BBX 16 32 0 -6
BITMAP
0000
0000
0000
0000
0000
0000
7FFC
7FFC
001C
001C
001C
0038
0070
00E0
01C0
0380
0700
0E00
1C00
3800
7000
7000
7000
7000
7FFC
7FFC
0000
0000
0000
0000
0000
0000
ENDCHAR

STARTCHAR bracketleft
ENCODING 91
SWIDTH 500 0
DWIDTH 16 0
BBX 16 32 0 -6
BITMAP
0000
0000
0000
0000
0000
0000
0FF0
0FF0
0E00
0E00
0E00
0E00
0E00
0E00
0E00
0E00
0E00
0E00
0E00
0E00
0E00
0E00
0E00
0E00
0FF0
0FF0
0000
0000
0000
0000
0000
0000
ENDCHAR

STARTCHAR backslash
ENCODING 92
SWIDTH 500 0
DWIDTH 16 0
BBX 16 32 0 -6
BITMAP
0000
0000
0000
0000
0000
0000
3800
3800
1C00
1C00
0E00
0E00
0700
0700
0380
0380
01C0
01C0
00E0
00E0
0070
0070
0038
0038
001C
001C
0000
0000
0000
0000
0000
0000
ENDCHAR

STARTCHAR bracketright
ENCODING 93
SWIDTH 500 0
DWIDTH 16 0
BBX 16 32 0 -6
BITMAP
0000
0000
0000
0000
0000
0000
0FF0
0FF0
0070
0070
0070
0070
0070
0070
0070
0070
0070
0070
0070
0070
0070
0070
0070
0070
0FF0
0FF0
0000
0000
0000
0000
0000
0000
ENDCHAR

STARTCHAR asciicircum
ENCODING 94
SWIDTH 500 0
DWIDTH 16 0
BBX 16 32 0 -6
BITMAP
0000
0000
0000
0000
0380
07C0
0EE0
1C70
3838
701C
0000
0000
0000
0000
0000
0000
0000
0000
0000
0000
0000
0000
0000
0000
0000
0000
0000
0000
0000
0000
0000
0000
ENDCHAR

STARTCHAR underscore
ENCODING 95
SWIDTH 500 0
DWIDTH 16 0
BBX 16 32 0 -6
BITMAP
0000
0000
0000
0000
0000
0000
0000
0000
0000
0000
0000
0000
0000
0000
0000
0000
0000
0000
0000
0000
0000
0000
0000
0000
0000
0000
0000
7FFC
7FFC
0000
0000
0000
ENDCHAR

STARTCHAR grave
ENCODING 96
SWIDTH 500 0
DWIDTH 16 0
BBX 16 32 0 -6
BITMAP
0000
1C00
0E00
0700
0380
0000
0000
0000
0000
0000
0000
0000
0000
0000
0000
0000
0000
0000
0000
0000
0000
0000
0000
0000
0000
0000
0000
0000
0000
0000
0000
0000
ENDCHAR

STARTCHAR a
ENCODING 97
SWIDTH 500 0
DWIDTH 16 0
BBX 16 32 0 -6
BITMAP
0000
0000
0000
0000
0000
0000
0000
0000
0000
0000
0000
0000
3FF0
3FF8
003C
001C
001C
1FFC
3FFC
781C
701C
701C
701C
781C
3FFC
1FFC
0000
0000
0000
0000
0000
0000
ENDCHAR

STARTCHAR b
ENCODING 98
SWIDTH 500 0
DWIDTH 16 0
BBX 16 32 0 -6
BITMAP
0000
0000
0000
0000
0000
0000
7000
7000
7000
7000
7000
7000
7FF0
7FF8
703C
701C
701C
701C
701C
701C
701C
701C
701C
703C
7FF8
7FF0
0000
0000
0000
0000
0000
0000
ENDCHAR

STARTCHAR c
ENCODING 99
SWIDTH 500 0
DWIDTH 16 0
BBX 16 32 0 -6
BITMAP
0000
0000
0000
0000
0000
0000
0000
0000
0000
0000
0000
0000
1FF0
3FF8
783C
701C
7000
7000
7000
7000
7000
7000
701C
783C
3FF8
1FF0
0000
0000
0000
0000
0000
0000
ENDCHAR

STARTCHAR d
ENCODING 100
SWIDTH 500 0
DWIDTH 16 0
BBX 16 32 0 -6
BITMAP
0000
0000
0000
0000
0000
0000
001C
001C
001C
001C
001C
001C
1FFC
3FFC
781C
701C
701C
701C
701C
701C
701C
701C
701C
781C
3FFC
1FFC
0000
0000
0000
0000
0000
0000
ENDCHAR

STARTCHAR e
ENCODING 101
SWIDTH 500 0
DWIDTH 16 0
BBX 16 32 0 -6
BITMAP
0000
0000
0000
0000
0000
0000
0000
0000
0000
0000
0000
0000
1FF0
3FF8
783C
701C
701C
701C
7FFC
7FFC
7000
7000
7000
781C
3FFC
1FF8
0000
0000
0000
0000
0000
0000
ENDCHAR

STARTCHAR f
ENCODING 102
SWIDTH 500 0
DWIDTH 16 0
BBX 16 32 0 -6
BITMAP
0000
0000
0000
0000
0000
0000
00FE
01FE
03C0
0380
0380
0380
3FF8
3FF8
0380
0380
0380
0380
0380
0380
0380
0380
0380
0380
0380
0380
0000
0000
0000
0000
0000
0000
ENDCHAR

STARTCHAR g
ENCODING 103
SWIDTH 500 0
DWIDTH 16 0
BBX 16 32 0 -6
BITMAP
0000
0000
0000
0000
0000
0000
0000
0000
0000
0000
0000
0000
1FFC
3FFC
781C
701C
701C
701C
701C
701C
701C
701C
701C
781C
3FFC
1FFC
001C
001C
003C
3FF8
3FF0
0000
ENDCHAR

STARTCHAR h
ENCODING 104
SWIDTH 500 0
DWIDTH 16 0
BBX 16 32 0 -6
BITMAP
0000
0000
0000
0000
0000
0000
7000
7000
7000
7000
7000
7000
7FF0
7FF8
703C
701C
701C
701C
701C
701C
701C
701C
701C
701C
701C
701C
0000
0000
0000
0000
0000
0000
ENDCHAR

STARTCHAR i
ENCODING 105
SWIDTH 500 0
DWIDTH 16 0
BBX 16 32 0 -6
BITMAP
0000
0000
0000
0000
0000
0000
0380
0380
0380
0380
0000
0000
0F80
0F80
0380
0380
0380
0380
0380
0380
0380
0380
0380
0380
0FE0
0FE0
0000
0000
0000
0000
0000
0000
ENDCHAR

STARTCHAR j
ENCODING 106
SWIDTH 500 0
DWIDTH 16 0
BBX 16 32 0 -6
BITMAP
0000
0000
0000
0000
0000
0000
0038
0038
0038
0038
0000
0000
00F8
00F8
0038
0038
0038
0038
0038
0038
0038
0038
0038
0038
0038
0038
3838
3838
3C78
1FF0
0FE0
0000
ENDCHAR

STARTCHAR k
ENCODING 107
SWIDTH 500 0
DWIDTH 16 0
BBX 16 32 0 -6
BITMAP
0000
0000
0000
0000
0000
0000
3800
3800
3800
3800
3800
3800
381C
3838
3870
38E0
39C0
3B80
3F00
3F00
3B80
39C0
38E0
3870
3838
381C
0000
0000
0000
0000
0000
0000
ENDCHAR

STARTCHAR l
ENCODING 108
SWIDTH 500 0
DWIDTH 16 0
BBX 16 32 0 -6
BITMAP
0000
0000
0000
0000
0000
0000
0F80
0F80
0380
0380
0380
0380
0380
0380
0380
0380
0380
0380
0380
0380
0380
0380
0380
0380
0FE0
0FE0
0000
0000
0000
0000
0000
0000
ENDCHAR

STARTCHAR m
ENCODING 109
SWIDTH 500 0
DWIDTH 16 0
BBX 16 32 0 -6
BITMAP
0000
0000
0000
0000
0000
0000
0000
0000
0000
0000
0000
0000
7FF0
7FF8
73BC
739C
739C
739C
739C
739C
739C
739C
739C
739C
739C
739C
0000
0000
0000
0000
0000
0000
ENDCHAR

STARTCHAR n
ENCODING 110
SWIDTH 500 0
DWIDTH 16 0
BBX 16 32 0 -6
BITMAP
0000
0000
0000
0000
0000
0000
0000
0000
0000
0000
0000
0000
7FF0
7FF8
703C
701C
701C
701C
701C
701C
701C
701C
701C
701C
701C
701C
0000
0000
0000
0000
0000
0000
ENDCHAR

STARTCHAR o
ENCODING 111
SWIDTH 500 0
DWIDTH 16 0
BBX 16 32 0 -6
BITMAP
0000
0000
0000
0000
0000
0000
0000
0000
0000
0000
0000
0000
1FF0
3FF8
783C
701C
701C
701C
701C
701C
701C
701C
701C
783C
3FF8
1FF0
0000
0000
0000
0000
0000
0000
ENDCHAR

STARTCHAR p
ENCODING 112
SWIDTH 500 0
DWIDTH 16 0
BBX 16 32 0 -6
BITMAP
0000
0000
0000
0000
0000
0000
0000
0000
0000
0000
0000
0000
7FF0
7FF8
703C
701C
701C
701C
701C
701C
701C
701C
701C
703C
7FF8
7FF0
7000
7000
7000
7000
7000
0000
ENDCHAR

STARTCHAR q
ENCODING 113
SWIDTH 500 0
DWIDTH 16 0
BBX 16 32 0 -6
BITMAP
0000
0000
0000
0000
0000
0000
0000
0000
0000
0000
0000
0000
1FFC
3FFC
781C
701C
701C
701C
701C
701C
701C
701C
701C
781C
3FFC
1FFC
001C
001C
001C
001C
001C
0000
ENDCHAR

STARTCHAR r
ENCODING 114
SWIDTH 500 0
DWIDTH 16 0
BBX 16 32 0 -6
BITMAP
0000
0000
0000
0000
0000
0000
0000
0000
0000
0000
0000
0000
73FC
77FC
7E00
7C00
7800
7000
7000
7000
7000
7000
7000
7000
7000
7000
0000
0000
0000
0000
0000
0000
ENDCHAR

STARTCHAR s
ENCODING 115
SWIDTH 500 0
DWIDTH 16 0
BBX 16 32 0 -6
BITMAP
0000
0000
0000
0000
0000
0000
0000
0000
0000
0000
0000
0000
1FF0
3FF8
783C
7000
7000
7800
3FF0
1FF8
003C
001C
001C
783C
3FF8
1FF0
0000
0000
0000
0000
0000
0000
ENDCHAR

STARTCHAR t
ENCODING 116
SWIDTH 500 0
DWIDTH 16 0
BBX 16 32 0 -6
BITMAP
0000
0000
0000
0000
0000
0000
0700
0700
0700
0700
0700
0700
7FF0
7FF0
0700
0700
0700
0700
0700
0700
0700
0700
0700
0780
03FC
01FC
0000
0000
0000
0000
0000
0000
ENDCHAR

STARTCHAR u
ENCODING 117
SWIDTH 500 0
DWIDTH 16 0
BBX 16 32 0 -6
BITMAP
0000
0000
0000
0000
0000
0000
0000
0000
0000
0000
0000
0000
701C
701C
701C
701C
701C
701C
701C
701C
701C
701C
701C
781C
3FFC
1FFC
0000
0000
0000
0000
0000
0000
ENDCHAR

STARTCHAR v
ENCODING 118
SWIDTH 500 0
DWIDTH 16 0
BBX 16 32 0 -6
BITMAP
0000
0000
0000
0000
0000
0000
0000
0000
0000
0000
0000
0000
701C
701C
701C
3838
3838
3838
1C70
1C70
1C70
0EE0
0EE0
07C0
07C0
07C0
0000
0000
0000
0000
0000
0000
ENDCHAR

STARTCHAR w
ENCODING 119
SWIDTH 500 0
DWIDTH 16 0
BBX 16 32 0 -6
BITMAP
0000
0000
0000
0000
0000
0000
0000
0000
0000
0000
0000
0000
701C
701C
701C
701C
739C
739C
739C
739C
739C
739C
739C
7BBC
3FF8
1FF0
0000
0000
0000
0000
0000
0000
ENDCHAR

STARTCHAR x
ENCODING 120
SWIDTH 500 0
DWIDTH 16 0
BBX 16 32 0 -6
BITMAP
0000
0000
0000
0000
0000
0000
0000
0000
0000
0000
0000
0000
701C
701C
701C
3838
1C70
0EE0
07C0
07C0
0EE0
1C70
3838
701C
701C
701C
0000
0000
0000
0000
0000
0000
ENDCHAR

STARTCHAR y
ENCODING 121
SWIDTH 500 0
DWIDTH 16 0
BBX 16 32 0 -6
BITMAP
0000
0000
0000
0000
0000
0000
0000
0000
0000
0000
0000
0000
701C
701C
701C
701C
701C
701C
701C
701C
701C
701C
701C
781C
3FFC
1FFC
001C
001C
003C
3FF8
3FF0
0000
ENDCHAR

STARTCHAR z
ENCODING 122
SWIDTH 500 0
DWIDTH 16 0
BBX 16 32 0 -6
BITMAP
0000
0000
0000
0000
0000
0000
0000
0000
0000
0000
0000
0000
7FFC
7FFC
0038
0070
00E0
01C0
0380
0700
0E00
1C00
3800
7000
7FFC
7FFC
0000
0000
0000
0000
0000
0000
ENDCHAR

STARTCHAR braceleft
ENCODING 123
SWIDTH 500 0
DWIDTH 16 0
BBX 16 32 0 -6
BITMAP
0000
0000
0000
0000
0000
0000
01F0
03F0
0780
0700
0700
0700
0700
0700
0700
3E00
3E00
0700
0700
0700
0700
0700
0700
0780
03F0
01F0
0000
0000
0000
0000
0000
0000
ENDCHAR

STARTCHAR bar
ENCODING 124
SWIDTH 500 0
DWIDTH 16 0
BBX 16 32 0 -6
BITMAP
0000
0000
0000
0000
0000
0000
0380
0380
0380
0380
0380
0380
0380
0380
0380
0380
0380
0380
0380
0380
0380
0380
0380
0380
0380
0380
0000
0000
0000
0000
0000
0000
ENDCHAR

STARTCHAR braceright
ENCODING 125
SWIDTH 500 0
DWIDTH 16 0
BBX 16 32 0 -6
BITMAP
0000
0000
0000
0000
0000
0000
3E00
3F00
0780
0380
0380
0380
0380
0380
0380
01F0
01F0
0380
0380
0380
0380
0380
0380
0780
3F00
3E00
0000
0000
0000
0000
0000
0000
ENDCHAR

STARTCHAR asciitilde
ENCODING 126
SWIDTH 500 0
DWIDTH 16 0
BBX 16 32 0 -6
BITMAP
0000
0000
0000
0000
0000
0000
0000
0000
0000
0000
0000
0000
0000
1E1C
3F1C
779C
73DC
71F8
70F0
0000
0000
0000
0000
0000
0000
0000
0000
0000
0000
0000
0000
0000
ENDCHAR

STARTCHAR space
ENCODING 160
SWIDTH 500 0
DWIDTH 16 0
BBX 16 32 0 -6
BITMAP
0000
0000
0000
0000
0000
0000
0000
0000
0000
0000
0000
0000
0000
0000
0000
0000
0000
0000
0000
0000
0000
0000
0000
0000
0000
0000
0000
0000
0000
0000
0000
0000
ENDCHAR

STARTCHAR exclamdown
ENCODING 161
SWIDTH 500 0
DWIDTH 16 0
BBX 16 32 0 -6
BITMAP
0000
0000
0000
0000
0000
0000
0380
0380
0380
0380
0000
0000
0380
0380
0380
0380
0380
0380
0380
0380
0380
0380
0380
0380
0380
0380
0000
0000
0000
0000
0000
0000
ENDCHAR

STARTCHAR cent
ENCODING 162
SWIDTH 500 0
DWIDTH 16 0
BBX 16 32 0 -6
BITMAP
0000
0000
0000
0000
0000
0000
0000
0000
0000
0380
0380
0380
1FF0
3FF8
7BBC
739C
7380
7380
7380
7380
7380
7380
739C
7BBC
3FF8
1FF0
0380
0380
0380
0000
0000
0000
ENDCHAR

STARTCHAR sterling
ENCODING 163
SWIDTH 500 0
DWIDTH 16 0
BBX 16 32 0 -6
BITMAP
0000
0000
0000
0000
0000
0000
07E0
0FF0
1E78
1C38
1C00
1C00
1C00
1C00
1C00
7FE0
7FE0
1C00
1C00
1C00
1C00
1C00
1C1C
1C1C
7FFC
7FFC
0000
0000
0000
0000
0000
0000
ENDCHAR

STARTCHAR Euro
ENCODING 164
SWIDTH 500 0
DWIDTH 16 0
BBX 16 32 0 -6
BITMAP
0000
0000
0000
0000
0000
0000
03F0
07F8
0E1C
1C0E
3800
3800
3800
FFE0
FFE0
3800
3800
FFE0
FFE0
3800
3800
3800
1C0E
0E1C
07F8
03F0
0000
0000
0000
0000
0000
0000
ENDCHAR

STARTCHAR yen
ENCODING 165
SWIDTH 500 0
DWIDTH 16 0
BBX 16 32 0 -6
BITMAP
0000
0000
0000
0000
0000
0000
701C
701C
3838
3838
1C70
1C70
0EE0
0EE0
07C0
07C0
0380
0380
3FF8
3FF8
0380
0380
3FF8
3FF8
0380
0380
0000
0000
0000
0000
0000
0000
ENDCHAR

STARTCHAR Scaron
ENCODING 166
SWIDTH 500 0
DWIDTH 16 0
BBX 16 32 0 -6
BITMAP
0000
1C70
0EE0
07C0
0380
0000
1FF0
3FF8
783C
701C
701C
7000
7000
7000
7800
3FF0
1FF8
003C
001C
001C
001C
701C
701C
783C
3FF8
1FF0
0000
0000
0000
0000
0000
0000
ENDCHAR

STARTCHAR section
ENCODING 167
SWIDTH 500 0
DWIDTH 16 0
BBX 16 32 0 -6
BITMAP
0000
0000
0000
0000
07E0
0FF0
1E78
1C38
1C00
1E00
0FC0
0FE0
1CF0
1C78
1C38
1C38
1C38
1E38
0F38
07F0
03F0
0078
0038
1C38
1E78
0FF0
07E0
0000
0000
0000
0000
0000
ENDCHAR

STARTCHAR scaron
ENCODING 168
SWIDTH 500 0
DWIDTH 16 0
BBX 16 32 0 -6
BITMAP
0000
0000
0000
0000
0000
0000
1C70
0EE0
07C0
0380
0000
0000
1FF0
3FF8
783C
7000
7000
7800
3FF0
1FF8
003C
001C
001C
783C
3FF8
1FF0
0000
0000
0000
0000
0000
0000
ENDCHAR

STARTCHAR copyright
ENCODING 169
SWIDTH 500 0
DWIDTH 16 0
BBX 16 32 0 -6
BITMAP
0000
0000
0000
0000
0000
0000
0000
0000
1FF8
3FFC
700E
67E6
6FF6
6E76
6E06
6E06
6E06
6E06
6E76
6FF6
67E6
700E
3FFC
1FF8
0000
0000
0000
0000
0000
0000
0000
0000
ENDCHAR

STARTCHAR ordfeminine
ENCODING 170
SWIDTH 500 0
DWIDTH 16 0
BBX 16 32 0 -6
BITMAP
0000
0000
1FE0
1FF0
0038
0038
0FF8
1FF8
3838
3838
3838
1FF8
0FF8
0000
0000
3FF8
3FF8
0000
0000
0000
0000
0000
0000
0000
0000
0000
0000
0000
0000
0000
0000
0000
ENDCHAR

STARTCHAR guillemotleft
ENCODING 171
SWIDTH 500 0
DWIDTH 16 0
BBX 16 32 0 -6
BITMAP
0000
0000
0000
0000
0000
0000
0000
0000
0000
0000
0000
0000
01CE
039C
0738
0E70
1CE0
39C0
7380
7380
39C0
1CE0
0E70
0738
039C
01CE
0000
0000
0000
0000
0000
0000
ENDCHAR

STARTCHAR logicalnot
ENCODING 172
SWIDTH 500 0
DWIDTH 16 0
BBX 16 32 0 -6
BITMAP
0000
0000
0000
0000
0000
0000
0000
0000
0000
0000
0000
0000
7FFC
7FFC
001C
001C
001C
001C
001C
001C
0000
0000
0000
0000
0000
0000
0000
0000
0000
0000
0000
0000
ENDCHAR

STARTCHAR hyphen
ENCODING 173
SWIDTH 500 0
DWIDTH 16 0
BBX 16 32 0 -6
BITMAP
0000
0000
0000
0000
0000
0000
0000
0000
0000
0000
0000
0000
0000
0000
0000
3FF8
3FF8
0000
0000
0000
0000
0000
0000
0000
0000
0000
0000
0000
0000
0000
0000
0000
ENDCHAR

STARTCHAR registered
ENCODING 174
SWIDTH 500 0
DWIDTH 16 0
BBX 16 32 0 -6
BITMAP
0000
0000
0000
0000
0000
0000
0000
0000
1FF8
3FFC
700E
6FE6
6FF6
6E76
6E76
6E76
6FE6
6FC6
6FC6
6EE6
6E76
700E
3FFC
1FF8
0000
0000
0000
0000
0000
0000
0000
0000
ENDCHAR

STARTCHAR macron
ENCODING 175
SWIDTH 500 0
DWIDTH 16 0
BBX 16 32 0 -6
BITMAP
0000
0000
1FF0
1FF0
0000
0000
0000
0000
0000
0000
0000
0000
0000
0000
0000
0000
0000
0000
0000
0000
0000
0000
0000
0000
0000
0000
0000
0000
0000
0000
0000
0000
ENDCHAR

STARTCHAR degree
ENCODING 176
SWIDTH 500 0
DWIDTH 16 0
BBX 16 32 0 -6
BITMAP
0000
0000
0000
0000
0FE0
1FF0
1C70
1C70
1C70
1C70
1FF0
0FE0
0000
0000
0000
0000
0000
0000
0000
0000
0000
0000
0000
0000
0000
0000
0000
0000
0000
0000
0000
0000
ENDCHAR

STARTCHAR plusminus
ENCODING 177
SWIDTH 500 0
DWIDTH 16 0
BBX 16 32 0 -6
BITMAP
0000
0000
0000
0000
0000
0000
0000
0000
0000
0000
0380
0380
0380
0380
0380
7FFC
7FFC
0380
0380
0380
0380
0380
0000
0000
7FFC
7FFC
0000
0000
0000
0000
0000
0000
ENDCHAR

STARTCHAR twosuperior
ENCODING 178
SWIDTH 500 0
DWIDTH 16 0
BBX 16 32 0 -6
BITMAP
0000
0000
0000
0FE0
1FF0
1C70
1C70
00E0
01C0
0380
0700
0E00
1FF0
1FF0
0000
0000
0000
0000
0000
0000
0000
0000
0000
0000
0000
0000
0000
0000
0000
0000
0000
0000
ENDCHAR

STARTCHAR threesuperior
ENCODING 179
SWIDTH 500 0
DWIDTH 16 0
BBX 16 32 0 -6
BITMAP
0000
0000
0000
0FE0
1FF0
1C70
0070
03E0
03E0
0070
0070
1C70
1FF0
0FE0
0000
0000
0000
0000
0000
0000
0000
0000
0000
0000
0000
0000
0000
0000
0000
0000
0000
0000
ENDCHAR

STARTCHAR Zcaron
ENCODING 180
SWIDTH 500 0
DWIDTH 16 0
BBX 16 32 0 -6
BITMAP
0000
1C70
0EE0
07C0
0380
0000
7FFC
7FFC
001C
001C
001C
0038
0070
00E0
01C0
0380
0700
0E00
1C00
3800
7000
7000
7000
7000
7FFC
7FFC
0000
0000
0000
0000
0000
0000
ENDCHAR

STARTCHAR mu
ENCODING 181
SWIDTH 500 0
DWIDTH 16 0
BBX 16 32 0 -6
BITMAP
0000
0000
0000
0000
0000
0000
0000
0000
0000
0000
0000
0000
701C
701C
701C
701C
701C
701C
701C
701C
701C
703C
707C
70FC
7FDC
7F9C
7000
7000
7000
7000
7000
0000
ENDCHAR

STARTCHAR paragraph
ENCODING 182
SWIDTH 500 0
DWIDTH 16 0
BBX 16 32 0 -6
BITMAP
0000
0000
0000
0000
0000
0000
1FFE
3FFE
79CE
71CE
71CE
71CE
71CE
71CE
79CE
3FCE
1FCE
01CE
01CE
01CE
01CE
01CE
01CE
01CE
01CE
01CE
0000
0000
0000
0000
0000
0000
ENDCHAR

STARTCHAR periodcentered
ENCODING 183
SWIDTH 500 0
DWIDTH 16 0
BBX 16 32 0 -6
BITMAP
0000
0000
0000
0000
0000
0000
0000
0000
0000
0000
0000
0000
0000
0000
0380
0380
0380
0380
0000
0000
0000
0000
0000
0000
0000
0000
0000
0000
0000
0000
0000
0000
ENDCHAR

STARTCHAR zcaron
ENCODING 184
SWIDTH 500 0
DWIDTH 16 0
BBX 16 32 0 -6
BITMAP
0000
0000
0000
0000
0000
0000
1C70
0EE0
07C0
0380
0000
0000
7FFC
7FFC
0038
0070
00E0
01C0
0380
0700
0E00
1C00
3800
7000
7FFC
7FFC
0000
0000
0000
0000
0000
0000
ENDCHAR

STARTCHAR onesuperior
ENCODING 185
SWIDTH 500 0
DWIDTH 16 0
BBX 16 32 0 -6
BITMAP
0000
0000
0000
0380
0780
0F80
0F80
0380
0380
0380
0380
0380
0FE0
0FE0
0000
0000
0000
0000
0000
0000
0000
0000
0000
0000
0000
0000
0000
0000
0000
0000
0000
0000
ENDCHAR

STARTCHAR ordmasculine
ENCODING 186
SWIDTH 500 0
DWIDTH 16 0
BBX 16 32 0 -6
BITMAP
0000
0000
0FE0
1FF0
3838
3838
3838
3838
3838
3838
3838
1FF0
0FE0
0000
0000
3FF8
3FF8
0000
0000
0000
0000
0000
0000
0000
0000
0000
0000
0000
0000
0000
0000
0000
ENDCHAR

STARTCHAR guillemotright
ENCODING 187
SWIDTH 500 0
DWIDTH 16 0
BBX 16 32 0 -6
BITMAP
0000
0000
0000
0000
0000
0000
0000
0000
0000
0000
0000
0000
7380
39C0
1CE0
0E70
0738
039C
01CE
01CE
039C
0738
0E70
1CE0
39C0
7380
0000
0000
0000
0000
0000
0000
ENDCHAR

STARTCHAR OE
ENCODING 188
SWIDTH 500 0
DWIDTH 16 0
BBX 16 32 0 -6
BITMAP
0000
0000
0000
0000
0000
0000
3FFE
7FFE
F1C0
E1C0
E1C0
E1C0
E1C0
E1C0
E1C0
E1FE
E1FE
E1C0
E1C0
E1C0
E1C0
E1C0
E1C0
F1C0
7FFE
3FFE
0000
0000
0000
0000
0000
0000
ENDCHAR

STARTCHAR oe
ENCODING 189
SWIDTH 500 0
DWIDTH 16 0
BBX 16 32 0 -6
BITMAP
0000
0000
0000
0000
0000
0000
0000
0000
0000
0000
0000
0000
3FF8
7FFC
F39E
E38E
E38E
E38E
E3FE
E3FE
E380
E380
E380
F38E
7FFE
3FFC
0000
0000
0000
0000
0000
0000
ENDCHAR

STARTCHAR Ydieresis
ENCODING 190
SWIDTH 500 0
DWIDTH 16 0
BBX 16 32 0 -6
BITMAP
0000
1C70
1C70
1C70
1C70
0000
701C
701C
701C
3838
3838
1C70
1C70
0EE0
0EE0
07C0
07C0
0380
0380
0380
0380
0380
0380
0380
0380
0380
0000
0000
0000
0000
0000
0000
ENDCHAR

STARTCHAR questiondown
ENCODING 191
SWIDTH 500 0
DWIDTH 16 0
BBX 16 32 0 -6
BITMAP
0000
0000
0000
0000
0000
0000
0380
0380
0380
0380
0000
0000
0380
0380
0380
0700
0E00
1C00
3800
701C
701C
701C
701C
783C
3FF8
1FF0
0000
0000
0000
0000
0000
0000
ENDCHAR

STARTCHAR Agrave
ENCODING 192
SWIDTH 500 0
DWIDTH 16 0
BBX 16 32 0 -6
BITMAP
0000
1C00
0E00
0700
0380
0000
1FF0
3FF8
783C
701C
701C
701C
701C
701C
701C
701C
7FFC
7FFC
701C
701C
701C
701C
701C
701C
701C
701C
0000
0000
0000
0000
0000
0000
ENDCHAR

STARTCHAR Aacute
ENCODING 193
SWIDTH 500 0
DWIDTH 16 0
BBX 16 32 0 -6
BITMAP
0000
0070
00E0
01C0
0380
0000
1FF0
3FF8
783C
701C
701C
701C
701C
701C
701C
701C
7FFC
7FFC
701C
701C
701C
701C
701C
701C
701C
701C
0000
0000
0000
0000
0000
0000
ENDCHAR

STARTCHAR Acircumflex
ENCODING 194
SWIDTH 500 0
DWIDTH 16 0
BBX 16 32 0 -6
BITMAP
0000
0380
07C0
0EE0
1C70
0000
1FF0
3FF8
783C
701C
701C
701C
701C
701C
701C
701C
7FFC
7FFC
701C
701C
701C
701C
701C
701C
701C
701C
0000
0000
0000
0000
0000
0000
ENDCHAR

STARTCHAR Atilde
ENCODING 195
SWIDTH 500 0
DWIDTH 16 0
BBX 16 32 0 -6
BITMAP
0000
1F38
3BB8
3BB8
39F0
0000
1FF0
3FF8
783C
701C
701C
701C
701C
701C
701C
701C
7FFC
7FFC
701C
701C
701C
701C
701C
701C
701C
701C
0000
0000
0000
0000
0000
0000
ENDCHAR

STARTCHAR Adieresis
ENCODING 196
SWIDTH 500 0
DWIDTH 16 0
BBX 16 32 0 -6
BITMAP
0000
1C70
1C70
1C70
1C70
0000
1FF0
3FF8
783C
701C
701C
701C
701C
701C
701C
701C
7FFC
7FFC
701C
701C
701C
701C
701C
701C
701C
701C
0000
0000
0000
0000
0000
0000
ENDCHAR

STARTCHAR Aring
ENCODING 197
SWIDTH 500 0
DWIDTH 16 0
BBX 16 32 0 -6
BITMAP
0000
07C0
0EE0
0EE0
0EE0
07C0
1FF0
3FF8
783C
701C
701C
701C
701C
701C
701C
701C
7FFC
7FFC
701C
701C
701C
701C
701C
701C
701C
701C
0000
0000
0000
0000
0000
0000
ENDCHAR

STARTCHAR AE
ENCODING 198
SWIDTH 500 0
DWIDTH 16 0
BBX 16 32 0 -6
BITMAP
0000
0000
0000
0000
0000
0000
3FFE
7FFE
F1C0
E1C0
E1C0
E1C0
E1C0
E1C0
E1C0
FFFE
FFFE
E1C0
E1C0
E1C0
E1C0
E1C0
E1C0
E1C0
E1FE
E1FE
0000
0000
0000
0000
0000
0000
ENDCHAR

STARTCHAR Ccedilla
ENCODING 199
SWIDTH 500 0
DWIDTH 16 0
BBX 16 32 0 -6
BITMAP
0000
0000
0000
0000
0000
0000
1FF0
3FF8
783C
701C
701C
7000
7000
7000
7000
7000
7000
7000
7000
7000
7000
701C
701C
783C
3FF8
1FF0
0380
0380
0380
0700
0E00
0000
ENDCHAR

STARTCHAR Egrave
ENCODING 200
SWIDTH 500 0
DWIDTH 16 0
BBX 16 32 0 -6
BITMAP
0000
1C00
0E00
0700
0380
0000
7FFC
7FFC
7000
7000
7000
7000
7000
7000
7000
7FE0
7FE0
7000
7000
7000
7000
7000
7000
7000
7FFC
7FFC
0000
0000
0000
0000
0000
0000
ENDCHAR

STARTCHAR Eacute
ENCODING 201
SWIDTH 500 0
DWIDTH 16 0
BBX 16 32 0 -6
BITMAP
0000
0070
00E0
01C0
0380
0000
7FFC
7FFC
7000
7000
7000
7000
7000
7000
7000
7FE0
7FE0
7000
7000
7000
7000
7000
7000
7000
7FFC
7FFC
0000
0000
0000
0000
0000
0000
ENDCHAR

STARTCHAR Ecircumflex
ENCODING 202
SWIDTH 500 0
DWIDTH 16 0
BBX 16 32 0 -6
BITMAP
0000
0380
07C0
0EE0
1C70
0000
7FFC
7FFC
7000
7000
7000
7000
7000
7000
7000
7FE0
7FE0
7000
7000
7000
7000
7000
7000
7000
7FFC
7FFC
0000
0000
0000
0000
0000
0000
ENDCHAR

STARTCHAR Edieresis
ENCODING 203
SWIDTH 500 0
DWIDTH 16 0
BBX 16 32 0 -6
BITMAP
0000
1C70
1C70
1C70
1C70
0000
7FFC
7FFC
7000
7000
7000
7000
7000
7000
7000
7FE0
7FE0
7000
7000
7000
7000
7000
7000
7000
7FFC
7FFC
0000
0000
0000
0000
0000
0000
ENDCHAR

STARTCHAR Igrave
ENCODING 204
SWIDTH 500 0
DWIDTH 16 0
BBX 16 32 0 -6
BITMAP
0000
1C00
0E00
0700
0380
0000
0FE0
0FE0
0380
0380
0380
0380
0380
0380
0380
0380
0380
0380
0380
0380
0380
0380
0380
0380
0FE0
0FE0
0000
0000
0000
0000
0000
0000
ENDCHAR

STARTCHAR Iacute
ENCODING 205
SWIDTH 500 0
DWIDTH 16 0
BBX 16 32 0 -6
BITMAP
0000
0070
00E0
01C0
0380
0000
0FE0
0FE0
0380
0380
0380
0380
0380
0380
0380
0380
0380
0380
0380
0380
0380
0380
0380
0380
0FE0
0FE0
0000
0000
0000
0000
0000
0000
ENDCHAR

STARTCHAR Icircumflex
ENCODING 206
SWIDTH 500 0
DWIDTH 16 0
BBX 16 32 0 -6
BITMAP
0000
0380
07C0
0EE0
1C70
0000
0FE0
0FE0
0380
0380
0380
0380
0380
0380
0380
0380
0380
0380
0380
0380
0380
0380
0380
0380
0FE0
0FE0
0000
0000
0000
0000
0000
0000
ENDCHAR

STARTCHAR Idieresis
ENCODING 207
SWIDTH 500 0
DWIDTH 16 0
BBX 16 32 0 -6
BITMAP
0000
1C70
1C70
1C70
1C70
0000
0FE0
0FE0
0380
0380
0380
0380
0380
0380
0380
0380
0380
0380
0380
0380
0380
0380
0380
0380
0FE0
0FE0
0000
0000
0000
0000
0000
0000
ENDCHAR

STARTCHAR Eth
ENCODING 208
SWIDTH 500 0
DWIDTH 16 0
BBX 16 32 0 -6
BITMAP
0000
0000
0000
0000
0000
0000
7FC0
7FF0
7078
7038
701C
701C
701C
701C
701C
FF9C
FF9C
701C
701C
701C
701C
701C
7038
7078
7FF0
7FC0
0000
0000
0000
0000
0000
0000
ENDCHAR

STARTCHAR Ntilde
ENCODING 209
SWIDTH 500 0
DWIDTH 16 0
BBX 16 32 0 -6
BITMAP
0000
1F38
3BB8
3BB8
39F0
0000
701C
701C
701C
701C
701C
781C
7C1C
7E1C
771C
739C
71DC
70FC
707C
703C
701C
701C
701C
701C
701C
701C
0000
0000
0000
0000
0000
0000
ENDCHAR

STARTCHAR Ograve
ENCODING 210
SWIDTH 500 0
DWIDTH 16 0
BBX 16 32 0 -6
BITMAP
0000
1C00
0E00
0700
0380
0000
1FF0
3FF8
783C
701C
701C
701C
701C
701C
701C
701C
701C
701C
701C
701C
701C
701C
701C
783C
3FF8
1FF0
0000
0000
0000
0000
0000
0000
ENDCHAR

STARTCHAR Oacute
ENCODING 211
SWIDTH 500 0
DWIDTH 16 0
BBX 16 32 0 -6
BITMAP
0000
0070
00E0
01C0
0380
0000
1FF0
3FF8
783C
701C
701C
701C
701C
701C
701C
701C
701C
701C
701C
701C
701C
701C
701C
783C
3FF8
1FF0
0000
0000
0000
0000
0000
0000
ENDCHAR

STARTCHAR Ocircumflex
ENCODING 212
SWIDTH 500 0
DWIDTH 16 0
BBX 16 32 0 -6
BITMAP
0000
0380
07C0
0EE0
1C70
0000
1FF0
3FF8
783C
701C
701C
701C
701C
701C
701C
701C
701C
701C
701C
701C
701C
701C
701C
783C
3FF8
1FF0
0000
0000
0000
0000
0000
0000
ENDCHAR

STARTCHAR Otilde
ENCODING 213
SWIDTH 500 0
DWIDTH 16 0
BBX 16 32 0 -6
BITMAP
0000
1F38
3BB8
3BB8
39F0
0000
1FF0
3FF8
783C
701C
701C
701C
701C
701C
701C
701C
701C
701C
701C
701C
701C
701C
701C
783C
3FF8
1FF0
0000
0000
0000
0000
0000
0000
ENDCHAR

STARTCHAR Odieresis
ENCODING 214
SWIDTH 500 0
DWIDTH 16 0
BBX 16 32 0 -6
BITMAP
0000
1C70
1C70
1C70
1C70
0000
1FF0
3FF8
783C
701C
701C
701C
701C
701C
701C
701C
701C
701C
701C
701C
701C
701C
701C
783C
3FF8
1FF0
0000
0000
0000
0000
0000
0000
ENDCHAR

STARTCHAR multiply
ENCODING 215
SWIDTH 500 0
DWIDTH 16 0
BBX 16 32 0 -6
BITMAP
0000
0000
0000
0000
0000
0000
0000
0000
0000
0000
700E
381C
1C38
0E70
07E0
03C0
03C0
07E0
0E70
1C38
381C
700E
0000
0000
0000
0000
0000
0000
0000
0000
0000
0000
ENDCHAR

STARTCHAR Oslash
ENCODING 216
SWIDTH 500 0
DWIDTH 16 0
BBX 16 32 0 -6
BITMAP
0000
0000
0000
0000
0000
0000
1FF0
3FF8
783E
701E
701C
703C
707C
70FC
71DC
739C
771C
7E1C
7C1C
781C
701C
F01C
F01C
783C
3FF8
1FF0
0000
0000
0000
0000
0000
0000
ENDCHAR

STARTCHAR Ugrave
ENCODING 217
SWIDTH 500 0
DWIDTH 16 0
BBX 16 32 0 -6
BITMAP
0000
1C00
0E00
0700
0380
0000
701C
701C
701C
701C
701C
701C
701C
701C
701C
701C
701C
701C
701C
701C
701C
701C
701C
783C
3FF8
1FF0
0000
0000
0000
0000
0000
0000
ENDCHAR

STARTCHAR Uacute
ENCODING 218
SWIDTH 500 0
DWIDTH 16 0
BBX 16 32 0 -6
BITMAP
0000
0070
00E0
01C0
0380
0000
701C
701C
701C
701C
701C
701C
701C
701C
701C
701C
701C
701C
701C
701C
701C
701C
701C
783C
3FF8
1FF0
0000
0000
0000
0000
0000
0000
ENDCHAR

STARTCHAR Ucircumflex
ENCODING 219
SWIDTH 500 0
DWIDTH 16 0
BBX 16 32 0 -6
BITMAP
0000
0380
07C0
0EE0
1C70
0000
701C
701C
701C
701C
701C
701C
701C
701C
701C
701C
701C
701C
701C
701C
701C
701C
701C
783C
3FF8
1FF0
0000
0000
0000
0000
0000
0000
ENDCHAR

STARTCHAR Udieresis
ENCODING 220
SWIDTH 500 0
DWIDTH 16 0
BBX 16 32 0 -6
BITMAP
0000
1C70
1C70
1C70
1C70
0000
701C
701C
701C
701C
701C
701C
701C
701C
701C
701C
701C
701C
701C
701C
701C
701C
701C
783C
3FF8
1FF0
0000
0000
0000
0000
0000
0000
ENDCHAR

STARTCHAR Yacute
ENCODING 221
SWIDTH 500 0
DWIDTH 16 0
BBX 16 32 0 -6
BITMAP
0000
0070
00E0
01C0
0380
0000
701C
701C
701C
3838
3838
1C70
1C70
0EE0
0EE0
07C0
07C0
0380
0380
0380
0380
0380
0380
0380
0380
0380
0000
0000
0000
0000
0000
0000
ENDCHAR

STARTCHAR Thorn
ENCODING 222
SWIDTH 500 0
DWIDTH 16 0
BBX 16 32 0 -6
BITMAP
0000
0000
0000
0000
0000
0000
7000
7000
7000
7000
7FF0
7FF8
703C
701C
701C
701C
701C
701C
701C
703C
7FF8
7FF0
7000
7000
7000
7000
0000
0000
0000
0000
0000
0000
ENDCHAR

STARTCHAR germandbls
ENCODING 223
SWIDTH 500 0
DWIDTH 16 0
BBX 16 32 0 -6
BITMAP
0000
0000
0000
0000
0000
0000
3FE0
7FF0
7078
7038
7038
7038
7038
7070
7FF0
7FF0
7038
701C
701C
701C
701C
701C
781C
7C3C
77F8
73F0
0000
0000
0000
0000
0000
0000
ENDCHAR

STARTCHAR agrave
ENCODING 224
SWIDTH 500 0
DWIDTH 16 0
BBX 16 32 0 -6
BITMAP
0000
0000
0000
0000
0000
0000
1C00
0E00
0700
0380
0000
0000
3FF0
3FF8
003C
001C
001C
1FFC
3FFC
781C
701C
701C
701C
781C
3FFC
1FFC
0000
0000
0000
0000
0000
0000
ENDCHAR

STARTCHAR aacute
ENCODING 225
SWIDTH 500 0
DWIDTH 16 0
BBX 16 32 0 -6
BITMAP
0000
0000
0000
0000
0000
0000
0070
00E0
01C0
0380
0000
0000
3FF0
3FF8
003C
001C
001C
1FFC
3FFC
781C
701C
701C
701C
781C
3FFC
1FFC
0000
0000
0000
0000
0000
0000
ENDCHAR

STARTCHAR acircumflex
ENCODING 226
SWIDTH 500 0
DWIDTH 16 0
BBX 16 32 0 -6
BITMAP
0000
0000
0000
0000
0000
0000
0380
07C0
0EE0
1C70
0000
0000
3FF0
3FF8
003C
001C
001C
1FFC
3FFC
781C
701C
701C
701C
781C
3FFC
1FFC
0000
0000
0000
0000
0000
0000
ENDCHAR

STARTCHAR atilde
ENCODING 227
SWIDTH 500 0
DWIDTH 16 0
BBX 16 32 0 -6
BITMAP
0000
0000
0000
0000
0000
0000
1F38
3BB8
3BB8
39F0
0000
0000
3FF0
3FF8
003C
001C
001C
1FFC
3FFC
781C
701C
701C
701C
781C
3FFC
1FFC
0000
0000
0000
0000
0000
0000
ENDCHAR

STARTCHAR adieresis
ENCODING 228
SWIDTH 500 0
DWIDTH 16 0
BBX 16 32 0 -6
BITMAP
0000
0000
0000
0000
0000
0000
1C70
1C70
1C70
1C70
0000
0000
3FF0
3FF8
003C
001C
001C
1FFC
3FFC
781C
701C
701C
701C
781C
3FFC
1FFC
0000
0000
0000
0000
0000
0000
ENDCHAR

STARTCHAR aring
ENCODING 229
SWIDTH 500 0
DWIDTH 16 0
BBX 16 32 0 -6
BITMAP
0000
0000
0000
0000
0000
0000
07C0
0EE0
0EE0
0EE0
07C0
0000
3FF0
3FF8
003C
001C
001C
1FFC
3FFC
781C
701C
701C
701C
781C
3FFC
1FFC
0000
0000
0000
0000
0000
0000
ENDCHAR

STARTCHAR ae
ENCODING 230
SWIDTH 500 0
DWIDTH 16 0
BBX 16 32 0 -6
BITMAP
0000
0000
0000
0000
0000
0000
0000
0000
0000
0000
0000
0000
7FF8
7FFC
039E
038E
038E
3F8E
7FFE
F3FE
E380
E380
E380
F3CE
7FFE
3EFC
0000
0000
0000
0000
0000
0000
ENDCHAR

STARTCHAR ccedilla
ENCODING 231
SWIDTH 500 0
DWIDTH 16 0
BBX 16 32 0 -6
BITMAP
0000
0000
0000
0000
0000
0000
0000
0000
0000
0000
0000
0000
1FF0
3FF8
783C
701C
7000
7000
7000
7000
7000
7000
701C
783C
3FF8
1FF0
0380
0380
0380
0700
0E00
0000
ENDCHAR

STARTCHAR egrave
ENCODING 232
SWIDTH 500 0
DWIDTH 16 0
BBX 16 32 0 -6
BITMAP
0000
0000
0000
0000
0000
0000
1C00
0E00
0700
0380
0000
0000
1FF0
3FF8
783C
701C
701C
701C
7FFC
7FFC
7000
7000
7000
781C
3FFC
1FF8
0000
0000
0000
0000
0000
0000
ENDCHAR

STARTCHAR eacute
ENCODING 233
SWIDTH 500 0
DWIDTH 16 0
BBX 16 32 0 -6
BITMAP
0000
0000
0000
0000
0000
0000
0070
00E0
01C0
0380
0000
0000
1FF0
3FF8
783C
701C
701C
701C
7FFC
7FFC
7000
7000
7000
781C
3FFC
1FF8
0000
0000
0000
0000
0000
0000
ENDCHAR

STARTCHAR ecircumflex
ENCODING 234
SWIDTH 500 0
DWIDTH 16 0
BBX 16 32 0 -6
BITMAP
0000
0000
0000
0000
0000
0000
0380
07C0
0EE0
1C70
0000
0000
1FF0
3FF8
783C
701C
701C
701C
7FFC
7FFC
7000
7000
7000
781C
3FFC
1FF8
0000
0000
0000
0000
0000
0000
ENDCHAR

STARTCHAR edieresis
ENCODING 235
SWIDTH 500 0
DWIDTH 16 0
BBX 16 32 0 -6
BITMAP
0000
0000
0000
0000
0000
0000
1C70
1C70
1C70
1C70
0000
0000
1FF0
3FF8
783C
701C
701C
701C
7FFC
7FFC
7000
7000
7000
781C
3FFC
1FF8
0000
0000
0000
0000
0000
0000
ENDCHAR

STARTCHAR igrave
ENCODING 236
SWIDTH 500 0
DWIDTH 16 0
BBX 16 32 0 -6
BITMAP
0000
0000
0000
0000
0000
0000
1C00
0E00
0700
0380
0000
0000
0F80
0F80
0380
0380
0380
0380
0380
0380
0380
0380
0380
0380
0FE0
0FE0
0000
0000
0000
0000
0000
0000
ENDCHAR

STARTCHAR iacute
ENCODING 237
SWIDTH 500 0
DWIDTH 16 0
BBX 16 32 0 -6
BITMAP
0000
0000
0000
0000
0000
0000
0070
00E0
01C0
0380
0000
0000
0F80
0F80
0380
0380
0380
0380
0380
0380
0380
0380
0380
0380
0FE0
0FE0
0000
0000
0000
0000
0000
0000
ENDCHAR

STARTCHAR icircumflex
ENCODING 238
SWIDTH 500 0
DWIDTH 16 0
BBX 16 32 0 -6
BITMAP
0000
0000
0000
0000
0000
0000
0380
07C0
0EE0
1C70
0000
0000
0F80
0F80
0380
0380
0380
0380
0380
0380
0380
0380
0380
0380
0FE0
0FE0
0000
0000
0000
0000
0000
0000
ENDCHAR

STARTCHAR idieresis
ENCODING 239
SWIDTH 500 0
DWIDTH 16 0
BBX 16 32 0 -6
BITMAP
0000
0000
0000
0000
0000
0000
1C70
1C70
1C70
1C70
0000
0000
0F80
0F80
0380
0380
0380
0380
0380
0380
0380
0380
0380
0380
0FE0
0FE0
0000
0000
0000
0000
0000
0000
ENDCHAR

STARTCHAR eth
ENCODING 240
SWIDTH 500 0
DWIDTH 16 0
BBX 16 32 0 -6
BITMAP
0000
0000
0000
0000
0000
0000
1DC0
0F80
1F00
3B80
01C0
00E0
1FF0
3FF8
783C
701C
701C
701C
701C
701C
701C
701C
701C
783C
3FF8
1FF0
0000
0000
0000
0000
0000
0000
ENDCHAR

STARTCHAR ntilde
ENCODING 241
SWIDTH 500 0
DWIDTH 16 0
BBX 16 32 0 -6
BITMAP
0000
0000
0000
0000
0000
0000
1F38
3BB8
3BB8
39F0
0000
0000
7FF0
7FF8
703C
701C
701C
701C
701C
701C
701C
701C
701C
701C
701C
701C
0000
0000
0000
0000
0000
0000
ENDCHAR

STARTCHAR ograve
ENCODING 242
SWIDTH 500 0
DWIDTH 16 0
BBX 16 32 0 -6
BITMAP
0000
0000
0000
0000
0000
0000
1C00
0E00
0700
0380
0000
0000
1FF0
3FF8
783C
701C
701C
701C
701C
701C
701C
701C
701C
783C
3FF8
1FF0
0000
0000
0000
0000
0000
0000
ENDCHAR

STARTCHAR oacute
ENCODING 243
SWIDTH 500 0
DWIDTH 16 0
BBX 16 32 0 -6
BITMAP
0000
0000
0000
0000
0000
0000
0070
00E0
01C0
0380
0000
0000
1FF0
3FF8
783C
701C
701C
701C
701C
701C
701C
701C
701C
783C
3FF8
1FF0
0000
0000
0000
0000
0000
0000
ENDCHAR

STARTCHAR ocircumflex
ENCODING 244
SWIDTH 500 0
DWIDTH 16 0
BBX 16 32 0 -6
BITMAP
0000
0000
0000
0000
0000
0000
0380
07C0
0EE0
1C70
0000
0000
1FF0
3FF8
783C
701C
701C
701C
701C
701C
701C
701C
701C
783C
3FF8
1FF0
0000
0000
0000
0000
0000
0000
ENDCHAR

STARTCHAR otilde
ENCODING 245
SWIDTH 500 0
DWIDTH 16 0
BBX 16 32 0 -6
BITMAP
0000
0000
0000
0000
0000
0000
1F38
3BB8
3BB8
39F0
0000
0000
1FF0
3FF8
783C
701C
701C
701C
701C
701C
701C
701C
701C
783C
3FF8
1FF0
0000
0000
0000
0000
0000
0000
ENDCHAR

STARTCHAR odieresis
ENCODING 246
SWIDTH 500 0
DWIDTH 16 0
BBX 16 32 0 -6
BITMAP
0000
0000
0000
0000
0000
0000
1C70
1C70
1C70
1C70
0000
0000
1FF0
3FF8
783C
701C
701C
701C
701C
701C
701C
701C
701C
783C
3FF8
1FF0
0000
0000
0000
0000
0000
0000
ENDCHAR

STARTCHAR divide
ENCODING 247
SWIDTH 500 0
DWIDTH 16 0
BBX 16 32 0 -6
BITMAP
0000
0000
0000
0000
0000
0000
0000
0000
0000
0380
0380
0380
0380
0000
0000
7FFC
7FFC
0000
0000
0380
0380
0380
0380
0000
0000
0000
0000
0000
0000
0000
0000
0000
ENDCHAR

STARTCHAR oslash
ENCODING 248
SWIDTH 500 0
DWIDTH 16 0
BBX 16 32 0 -6
BITMAP
0000
0000
0000
0000
0000
0000
0000
0000
0000
0000
0000
0000
1FF6
3FFE
783C
707C
70FC
71DC
739C
771C
7E1C
7C1C
781C
783C
FFF8
DFF0
0000
0000
0000
0000
0000
0000
ENDCHAR

STARTCHAR ugrave
ENCODING 249
SWIDTH 500 0
DWIDTH 16 0
BBX 16 32 0 -6
BITMAP
0000
0000
0000
0000
0000
0000
1C00
0E00
0700
0380
0000
0000
701C
701C
701C
701C
701C
701C
701C
701C
701C
701C
701C
781C
3FFC
1FFC
0000
0000
0000
0000
0000
0000
ENDCHAR

STARTCHAR uacute
ENCODING 250
SWIDTH 500 0
DWIDTH 16 0
BBX 16 32 0 -6
BITMAP
0000
0000
0000
0000
0000
0000
0070
00E0
01C0
0380
0000
0000
701C
701C
701C
701C
701C
701C
701C
701C
701C
701C
701C
781C
3FFC
1FFC
0000
0000
0000
0000
0000
0000
ENDCHAR

STARTCHAR ucircumflex
ENCODING 251
SWIDTH 500 0
DWIDTH 16 0
BBX 16 32 0 -6
BITMAP
0000
0000
0000
0000
0000
0000
0380
07C0
0EE0
1C70
0000
0000
701C
701C
701C
701C
701C
701C
701C
701C
701C
701C
701C
781C
3FFC
1FFC
0000
0000
0000
0000
0000
0000
ENDCHAR

STARTCHAR udieresis
ENCODING 252
SWIDTH 500 0
DWIDTH 16 0
BBX 16 32 0 -6
BITMAP
0000
0000
0000
0000
0000
0000
1C70
1C70
1C70
1C70
0000
0000
701C
701C
701C
701C
701C
701C
701C
701C
701C
701C
701C
781C
3FFC
1FFC
0000
0000
0000
0000
0000
0000
ENDCHAR

STARTCHAR yacute
ENCODING 253
SWIDTH 500 0
DWIDTH 16 0
BBX 16 32 0 -6
BITMAP
0000
0000
0000
0000
0000
0000
0070
00E0
01C0
0380
0000
0000
701C
701C
701C
701C
701C
701C
701C
701C
701C
701C
701C
781C
3FFC
1FFC
001C
001C
003C
3FF8
3FF0
0000
ENDCHAR

STARTCHAR thorn
ENCODING 254
SWIDTH 500 0
DWIDTH 16 0
BBX 16 32 0 -6
BITMAP
0000
0000
0000
0000
0000
0000
7000
7000
7000
7000
7000
7000
7FF0
7FF8
703C
701C
701C
701C
701C
701C
701C
701C
701C
703C
7FF8
7FF0
7000
7000
7000
7000
7000
0000
ENDCHAR

STARTCHAR ydieresis
ENCODING 255
SWIDTH 500 0
DWIDTH 16 0
BBX 16 32 0 -6
BITMAP
0000
0000
0000
0000
0000
0000
1C70
1C70
1C70
1C70
0000
0000
701C
701C
701C
701C
701C
701C
701C
701C
701C
701C
701C
781C
3FFC
1FFC
001C
001C
003C
3FF8
3FF0
0000
ENDCHAR
ENDFONT
